<svg width="16" height="17" viewBox="0 0 16 17" fill="none" xmlns="http://www.w3.org/2000/svg">
<g clip-path="url(#clip0_1376_4886)">
<g clip-path="url(#clip1_1376_4886)">
<path d="M13.9341 12.6224H12.5311C12 12.6224 11.8358 12.2 10.8815 11.2329C10.0503 10.4281 9.68266 10.3199 9.47855 10.3199C9.19203 10.3199 9.11026 10.4017 9.11026 10.797V12.0642C9.11026 12.4054 9.00144 12.6095 8.10195 12.6095C6.28752 12.4878 4.72807 11.4982 3.82278 10.0559L3.80926 10.0334C2.75846 8.72827 1.98389 7.1553 1.60078 5.43487L1.58662 5.35954C1.58662 5.15543 1.66839 4.9642 2.06373 4.9642H3.46672C3.82085 4.9642 3.95735 5.12775 4.0945 5.50892C4.78859 7.51264 5.94756 9.27041 6.42467 9.27041C6.60173 9.27041 6.68351 9.18864 6.68351 8.73922V6.6666C6.62878 5.71238 6.12462 5.63125 6.12462 5.29064C6.13042 5.10843 6.2798 4.96291 6.46266 4.96291C6.46845 4.96291 6.4736 4.96291 6.4794 4.96356H6.47875H8.68659C8.98663 4.96356 9.09545 5.1271 9.09545 5.48123V8.27563C9.09545 8.57503 9.23195 8.68449 9.31372 8.68449C9.49078 8.68449 9.64145 8.57503 9.96789 8.24859C10.6465 7.41993 11.2267 6.47215 11.669 5.45032L11.6986 5.37306C11.792 5.13933 12.016 4.97708 12.2781 4.97708C12.2903 4.97708 12.3019 4.97772 12.3142 4.97837H12.3122H13.7152C14.1376 4.97837 14.2335 5.19535 14.1376 5.49604C13.5749 6.73549 12.9426 7.80046 12.2099 8.78687L12.2433 8.73922C12.094 8.98453 12.0392 9.09335 12.2433 9.36699C12.3927 9.5711 12.884 9.99348 13.2111 10.3753C13.6843 10.8434 14.0809 11.3881 14.3803 11.9895L14.3964 12.0249C14.5329 12.4189 14.3282 12.6237 13.9329 12.6237L13.9341 12.6224ZM10.964 -1.15515H5.03584C-0.374613 -1.15515 -1.65527 0.125509 -1.65527 5.53596V11.4641C-1.65527 16.8745 -0.374613 18.1552 5.03584 18.1552H10.964C16.3744 18.1552 17.6551 16.8745 17.6551 11.4641V5.53596C17.6551 0.125509 16.3602 -1.15515 10.964 -1.15515Z" fill="#1D1C29"/>
</g>
</g>
<defs>
<clipPath id="clip0_1376_4886">
<rect y="0.5" width="16" height="16" rx="8" fill="white"/>
</clipPath>
<clipPath id="clip1_1376_4886">
<rect width="16" height="16" fill="white" transform="translate(0 0.5)"/>
</clipPath>
</defs>
</svg>
